<?xml version="1.0" encoding="utf-8"?>
<!-- Generator: Adobe Illustrator 16.0.0, SVG Export Plug-In . SVG Version: 6.00 Build 0)  -->
<!DOCTYPE svg PUBLIC "-//W3C//DTD SVG 1.1//EN" "http://www.w3.org/Graphics/SVG/1.1/DTD/svg11.dtd">
<svg version="1.1" id="Layer_1" xmlns="http://www.w3.org/2000/svg" xmlns:xlink="http://www.w3.org/1999/xlink" x="0px" y="0px"
	 width="40.278px" height="29px" viewBox="0 0 40.278 29" enable-background="new 0 0 40.278 29" xml:space="preserve">
<g id="XMLID_822_">
	<path id="XMLID_823_" fill="#FFFFFF" d="M38.708,2.49C37.253,0.721,34.57,0,29.443,0H10.834C5.591,0,2.861,0.768,1.412,2.65
		C0,4.485,0,7.19,0,10.933v7.133C0,25.318,1.676,29,10.834,29h18.609c4.446,0,6.908-0.637,8.502-2.198
		c1.637-1.599,2.333-4.212,2.333-8.735v-7.133C40.278,6.985,40.167,4.266,38.708,2.49z M25.857,15.486l-8.449,4.518
		c-0.188,0.101-0.395,0.15-0.603,0.15c-0.232,0-0.464-0.064-0.672-0.193c-0.39-0.24-0.626-0.67-0.626-1.136V9.817
		c0-0.464,0.236-0.895,0.623-1.135c0.391-0.242,0.872-0.258,1.274-0.045l8.451,4.49c0.429,0.228,0.699,0.681,0.701,1.177
		C26.558,14.802,26.288,15.257,25.857,15.486z"/>
</g>
</svg>
